<mxfile host="app.diagrams.net" modified="2023-08-17T19:52:18.557Z" agent="Mozilla/5.0 (Windows NT 10.0; Win64; x64) AppleWebKit/537.36 (KHTML, like Gecko) Chrome/109.0.0.0 Safari/537.36" etag="8CG5K0imc8Hku615PBar" version="21.6.8" type="google">
  <diagram name="ページ1" id="DE_Cwm9TTIBniMW3XSRr">
    <mxGraphModel grid="1" page="1" gridSize="10" guides="1" tooltips="1" connect="1" arrows="1" fold="1" pageScale="1" pageWidth="1169" pageHeight="827" math="0" shadow="0">
      <root>
        <mxCell id="0" />
        <mxCell id="1" parent="0" />
        <mxCell id="JWKSpVbzMKbB_nFPre9e-1" value="" style="rounded=0;whiteSpace=wrap;html=1;" vertex="1" parent="1">
          <mxGeometry x="520" y="80" width="40" height="40" as="geometry" />
        </mxCell>
        <mxCell id="JWKSpVbzMKbB_nFPre9e-2" value="" style="rounded=0;whiteSpace=wrap;html=1;strokeColor=none;fillColor=none;" vertex="1" parent="1">
          <mxGeometry width="40" height="40" as="geometry" />
        </mxCell>
        <mxCell id="JWKSpVbzMKbB_nFPre9e-3" value="" style="rounded=0;whiteSpace=wrap;html=1;strokeColor=none;fillColor=none;" vertex="1" parent="1">
          <mxGeometry x="1600" width="40" height="40" as="geometry" />
        </mxCell>
        <mxCell id="JWKSpVbzMKbB_nFPre9e-4" value="" style="rounded=0;whiteSpace=wrap;html=1;" vertex="1" parent="1">
          <mxGeometry x="520" y="120" width="40" height="40" as="geometry" />
        </mxCell>
        <mxCell id="JWKSpVbzMKbB_nFPre9e-5" value="" style="rounded=0;whiteSpace=wrap;html=1;" vertex="1" parent="1">
          <mxGeometry x="520" y="160" width="40" height="40" as="geometry" />
        </mxCell>
        <mxCell id="JWKSpVbzMKbB_nFPre9e-6" value="" style="rounded=0;whiteSpace=wrap;html=1;" vertex="1" parent="1">
          <mxGeometry x="520" y="200" width="40" height="40" as="geometry" />
        </mxCell>
        <mxCell id="JWKSpVbzMKbB_nFPre9e-7" value="" style="rounded=0;whiteSpace=wrap;html=1;" vertex="1" parent="1">
          <mxGeometry x="520" y="240" width="40" height="40" as="geometry" />
        </mxCell>
        <mxCell id="JWKSpVbzMKbB_nFPre9e-8" value="" style="rounded=0;whiteSpace=wrap;html=1;" vertex="1" parent="1">
          <mxGeometry x="560" y="80" width="40" height="40" as="geometry" />
        </mxCell>
        <mxCell id="JWKSpVbzMKbB_nFPre9e-9" value="" style="rounded=0;whiteSpace=wrap;html=1;" vertex="1" parent="1">
          <mxGeometry x="560" y="120" width="40" height="40" as="geometry" />
        </mxCell>
        <mxCell id="JWKSpVbzMKbB_nFPre9e-10" value="" style="rounded=0;whiteSpace=wrap;html=1;" vertex="1" parent="1">
          <mxGeometry x="560" y="200" width="40" height="40" as="geometry" />
        </mxCell>
        <mxCell id="JWKSpVbzMKbB_nFPre9e-11" value="" style="rounded=0;whiteSpace=wrap;html=1;" vertex="1" parent="1">
          <mxGeometry x="560" y="240" width="40" height="40" as="geometry" />
        </mxCell>
        <mxCell id="JWKSpVbzMKbB_nFPre9e-12" value="" style="rounded=0;whiteSpace=wrap;html=1;" vertex="1" parent="1">
          <mxGeometry x="600" y="80" width="40" height="40" as="geometry" />
        </mxCell>
        <mxCell id="JWKSpVbzMKbB_nFPre9e-13" value="" style="rounded=0;whiteSpace=wrap;html=1;" vertex="1" parent="1">
          <mxGeometry x="600" y="120" width="40" height="40" as="geometry" />
        </mxCell>
        <mxCell id="JWKSpVbzMKbB_nFPre9e-14" value="" style="rounded=0;whiteSpace=wrap;html=1;" vertex="1" parent="1">
          <mxGeometry x="600" y="160" width="40" height="40" as="geometry" />
        </mxCell>
        <mxCell id="JWKSpVbzMKbB_nFPre9e-15" value="" style="rounded=0;whiteSpace=wrap;html=1;" vertex="1" parent="1">
          <mxGeometry x="600" y="200" width="40" height="40" as="geometry" />
        </mxCell>
        <mxCell id="JWKSpVbzMKbB_nFPre9e-16" value="" style="rounded=0;whiteSpace=wrap;html=1;" vertex="1" parent="1">
          <mxGeometry x="600" y="240" width="40" height="40" as="geometry" />
        </mxCell>
        <mxCell id="JWKSpVbzMKbB_nFPre9e-17" value="" style="rounded=0;whiteSpace=wrap;html=1;" vertex="1" parent="1">
          <mxGeometry x="640" y="80" width="40" height="40" as="geometry" />
        </mxCell>
        <mxCell id="JWKSpVbzMKbB_nFPre9e-18" value="" style="rounded=0;whiteSpace=wrap;html=1;" vertex="1" parent="1">
          <mxGeometry x="640" y="120" width="40" height="40" as="geometry" />
        </mxCell>
        <mxCell id="JWKSpVbzMKbB_nFPre9e-19" value="" style="rounded=0;whiteSpace=wrap;html=1;" vertex="1" parent="1">
          <mxGeometry x="640" y="160" width="40" height="40" as="geometry" />
        </mxCell>
        <mxCell id="JWKSpVbzMKbB_nFPre9e-20" value="" style="rounded=0;whiteSpace=wrap;html=1;" vertex="1" parent="1">
          <mxGeometry x="640" y="200" width="40" height="40" as="geometry" />
        </mxCell>
        <mxCell id="JWKSpVbzMKbB_nFPre9e-21" value="" style="rounded=0;whiteSpace=wrap;html=1;" vertex="1" parent="1">
          <mxGeometry x="640" y="240" width="40" height="40" as="geometry" />
        </mxCell>
        <mxCell id="JWKSpVbzMKbB_nFPre9e-22" value="" style="rounded=0;whiteSpace=wrap;html=1;" vertex="1" parent="1">
          <mxGeometry x="680" y="80" width="40" height="40" as="geometry" />
        </mxCell>
        <mxCell id="JWKSpVbzMKbB_nFPre9e-23" value="" style="rounded=0;whiteSpace=wrap;html=1;" vertex="1" parent="1">
          <mxGeometry x="680" y="120" width="40" height="40" as="geometry" />
        </mxCell>
        <mxCell id="JWKSpVbzMKbB_nFPre9e-24" value="" style="rounded=0;whiteSpace=wrap;html=1;" vertex="1" parent="1">
          <mxGeometry x="680" y="160" width="40" height="40" as="geometry" />
        </mxCell>
        <mxCell id="JWKSpVbzMKbB_nFPre9e-25" value="" style="rounded=0;whiteSpace=wrap;html=1;" vertex="1" parent="1">
          <mxGeometry x="680" y="200" width="40" height="40" as="geometry" />
        </mxCell>
        <mxCell id="JWKSpVbzMKbB_nFPre9e-26" value="" style="rounded=0;whiteSpace=wrap;html=1;" vertex="1" parent="1">
          <mxGeometry x="680" y="240" width="40" height="40" as="geometry" />
        </mxCell>
        <mxCell id="JWKSpVbzMKbB_nFPre9e-27" value="" style="rounded=0;whiteSpace=wrap;html=1;fillColor=#d5e8d4;strokeColor=#82b366;" vertex="1" parent="1">
          <mxGeometry x="560" y="160" width="40" height="40" as="geometry" />
        </mxCell>
        <mxCell id="JWKSpVbzMKbB_nFPre9e-28" value="XY座標" style="text;html=1;align=center;verticalAlign=middle;resizable=0;points=[];autosize=1;strokeColor=none;fillColor=none;fontSize=16;" vertex="1" parent="1">
          <mxGeometry x="580" y="10" width="80" height="30" as="geometry" />
        </mxCell>
        <mxCell id="JWKSpVbzMKbB_nFPre9e-29" value="UV座標" style="text;html=1;align=center;verticalAlign=middle;resizable=0;points=[];autosize=1;strokeColor=none;fillColor=none;fontSize=16;" vertex="1" parent="1">
          <mxGeometry x="981" y="10" width="80" height="30" as="geometry" />
        </mxCell>
        <mxCell id="JWKSpVbzMKbB_nFPre9e-30" value="" style="endArrow=classic;html=1;rounded=0;" edge="1" parent="1">
          <mxGeometry width="50" height="50" relative="1" as="geometry">
            <mxPoint x="500" y="120" as="sourcePoint" />
            <mxPoint x="500" y="240" as="targetPoint" />
          </mxGeometry>
        </mxCell>
        <mxCell id="JWKSpVbzMKbB_nFPre9e-31" value="y" style="edgeLabel;html=1;align=center;verticalAlign=middle;resizable=0;points=[];labelBackgroundColor=none;fontSize=16;" vertex="1" connectable="0" parent="JWKSpVbzMKbB_nFPre9e-30">
          <mxGeometry x="-0.0278" y="-1" relative="1" as="geometry">
            <mxPoint x="-9" y="2" as="offset" />
          </mxGeometry>
        </mxCell>
        <mxCell id="JWKSpVbzMKbB_nFPre9e-32" value="" style="endArrow=classic;html=1;rounded=0;" edge="1" parent="1">
          <mxGeometry width="50" height="50" relative="1" as="geometry">
            <mxPoint x="901" y="120" as="sourcePoint" />
            <mxPoint x="901" y="240" as="targetPoint" />
          </mxGeometry>
        </mxCell>
        <mxCell id="JWKSpVbzMKbB_nFPre9e-33" value="v" style="edgeLabel;html=1;align=center;verticalAlign=middle;resizable=0;points=[];fontSize=16;labelBackgroundColor=none;" vertex="1" connectable="0" parent="JWKSpVbzMKbB_nFPre9e-32">
          <mxGeometry x="0.0192" y="-1" relative="1" as="geometry">
            <mxPoint x="-14" y="-1" as="offset" />
          </mxGeometry>
        </mxCell>
        <mxCell id="JWKSpVbzMKbB_nFPre9e-34" value="" style="endArrow=classic;html=1;rounded=0;fontSize=16;" edge="1" parent="1">
          <mxGeometry width="50" height="50" relative="1" as="geometry">
            <mxPoint x="961" y="60" as="sourcePoint" />
            <mxPoint x="1081" y="60" as="targetPoint" />
          </mxGeometry>
        </mxCell>
        <mxCell id="JWKSpVbzMKbB_nFPre9e-35" value="u" style="edgeLabel;html=1;align=center;verticalAlign=middle;resizable=0;points=[];labelBackgroundColor=none;fontSize=16;" vertex="1" connectable="0" parent="JWKSpVbzMKbB_nFPre9e-34">
          <mxGeometry x="-0.4" y="1" relative="1" as="geometry">
            <mxPoint x="23" y="-9" as="offset" />
          </mxGeometry>
        </mxCell>
        <mxCell id="JWKSpVbzMKbB_nFPre9e-36" value="" style="endArrow=classic;html=1;rounded=0;" edge="1" parent="1">
          <mxGeometry width="50" height="50" relative="1" as="geometry">
            <mxPoint x="560" y="60" as="sourcePoint" />
            <mxPoint x="680" y="60" as="targetPoint" />
          </mxGeometry>
        </mxCell>
        <mxCell id="JWKSpVbzMKbB_nFPre9e-37" value="x" style="edgeLabel;html=1;align=center;verticalAlign=middle;resizable=0;points=[];labelBackgroundColor=none;fontSize=16;" vertex="1" connectable="0" parent="JWKSpVbzMKbB_nFPre9e-36">
          <mxGeometry x="-0.0923" y="2" relative="1" as="geometry">
            <mxPoint x="6" y="-8" as="offset" />
          </mxGeometry>
        </mxCell>
        <mxCell id="JWKSpVbzMKbB_nFPre9e-38" value="" style="endArrow=classic;html=1;rounded=0;entryX=0.5;entryY=1;entryDx=0;entryDy=0;" edge="1" parent="1" source="JWKSpVbzMKbB_nFPre9e-39" target="JWKSpVbzMKbB_nFPre9e-27">
          <mxGeometry width="50" height="50" relative="1" as="geometry">
            <mxPoint x="630" y="330" as="sourcePoint" />
            <mxPoint x="740" y="200" as="targetPoint" />
          </mxGeometry>
        </mxCell>
        <mxCell id="JWKSpVbzMKbB_nFPre9e-39" value="(1, 2)" style="text;html=1;align=center;verticalAlign=middle;resizable=0;points=[];autosize=1;strokeColor=none;fillColor=none;fontSize=16;" vertex="1" parent="1">
          <mxGeometry x="600" y="320" width="60" height="30" as="geometry" />
        </mxCell>
        <mxCell id="JWKSpVbzMKbB_nFPre9e-40" value="(0.3, 0.5)" style="text;html=1;align=center;verticalAlign=middle;resizable=0;points=[];autosize=1;strokeColor=none;fillColor=none;fontSize=16;" vertex="1" parent="1">
          <mxGeometry x="986" y="320" width="90" height="30" as="geometry" />
        </mxCell>
        <mxCell id="JWKSpVbzMKbB_nFPre9e-41" value="" style="rounded=0;whiteSpace=wrap;html=1;" vertex="1" parent="1">
          <mxGeometry x="920" y="80" width="200" height="200" as="geometry" />
        </mxCell>
        <mxCell id="JWKSpVbzMKbB_nFPre9e-42" value="" style="ellipse;whiteSpace=wrap;html=1;aspect=fixed;strokeWidth=2;fillColor=#d5e8d4;strokeColor=#82b366;" vertex="1" parent="1">
          <mxGeometry x="976" y="175" width="10" height="10" as="geometry" />
        </mxCell>
        <mxCell id="JWKSpVbzMKbB_nFPre9e-43" value="" style="endArrow=classic;html=1;rounded=0;entryX=0.5;entryY=1;entryDx=0;entryDy=0;" edge="1" parent="1" source="JWKSpVbzMKbB_nFPre9e-40" target="JWKSpVbzMKbB_nFPre9e-42">
          <mxGeometry width="50" height="50" relative="1" as="geometry">
            <mxPoint x="1021" y="330" as="sourcePoint" />
            <mxPoint x="987.4516129032259" y="200" as="targetPoint" />
          </mxGeometry>
        </mxCell>
        <mxCell id="JWKSpVbzMKbB_nFPre9e-44" value="transform" style="shape=singleArrow;whiteSpace=wrap;html=1;arrowWidth=0.5066666666666667;arrowSize=0.55;fontSize=16;gradientColor=#999999;gradientDirection=east;strokeColor=none;" vertex="1" parent="1">
          <mxGeometry x="764" y="105" width="100" height="150" as="geometry" />
        </mxCell>
        <mxCell id="JWKSpVbzMKbB_nFPre9e-45" value="(0, 0)" style="text;html=1;align=center;verticalAlign=middle;resizable=0;points=[];autosize=1;strokeColor=none;fillColor=none;fontSize=16;" vertex="1" parent="1">
          <mxGeometry x="886" y="50" width="60" height="30" as="geometry" />
        </mxCell>
        <mxCell id="JWKSpVbzMKbB_nFPre9e-46" value="(1, 1)" style="text;html=1;align=center;verticalAlign=middle;resizable=0;points=[];autosize=1;strokeColor=none;fillColor=none;fontSize=16;" vertex="1" parent="1">
          <mxGeometry x="1090" y="280" width="60" height="30" as="geometry" />
        </mxCell>
        <mxCell id="StHNM1SJUAKFNhLofxxj-1" value="0" style="text;html=1;align=center;verticalAlign=middle;resizable=0;points=[];autosize=1;strokeColor=none;fillColor=none;fontSize=8;fontStyle=1" vertex="1" parent="1">
          <mxGeometry x="525" y="60" width="30" height="20" as="geometry" />
        </mxCell>
        <mxCell id="StHNM1SJUAKFNhLofxxj-2" value="1" style="text;html=1;align=center;verticalAlign=middle;resizable=0;points=[];autosize=1;strokeColor=none;fillColor=none;fontSize=8;fontStyle=1" vertex="1" parent="1">
          <mxGeometry x="565" y="60" width="30" height="20" as="geometry" />
        </mxCell>
        <mxCell id="StHNM1SJUAKFNhLofxxj-3" value="2" style="text;html=1;align=center;verticalAlign=middle;resizable=0;points=[];autosize=1;strokeColor=none;fillColor=none;fontSize=8;fontStyle=1" vertex="1" parent="1">
          <mxGeometry x="605" y="60" width="30" height="20" as="geometry" />
        </mxCell>
        <mxCell id="StHNM1SJUAKFNhLofxxj-4" value="3" style="text;html=1;align=center;verticalAlign=middle;resizable=0;points=[];autosize=1;strokeColor=none;fillColor=none;fontSize=8;fontStyle=1" vertex="1" parent="1">
          <mxGeometry x="645" y="60" width="30" height="20" as="geometry" />
        </mxCell>
        <mxCell id="StHNM1SJUAKFNhLofxxj-5" value="4" style="text;html=1;align=center;verticalAlign=middle;resizable=0;points=[];autosize=1;strokeColor=none;fillColor=none;fontSize=8;fontStyle=1" vertex="1" parent="1">
          <mxGeometry x="685" y="60" width="30" height="20" as="geometry" />
        </mxCell>
        <mxCell id="StHNM1SJUAKFNhLofxxj-6" value="0" style="text;html=1;align=center;verticalAlign=middle;resizable=0;points=[];autosize=1;strokeColor=none;fillColor=none;fontSize=8;fontStyle=1" vertex="1" parent="1">
          <mxGeometry x="495" y="90" width="30" height="20" as="geometry" />
        </mxCell>
        <mxCell id="StHNM1SJUAKFNhLofxxj-7" value="1" style="text;html=1;align=center;verticalAlign=middle;resizable=0;points=[];autosize=1;strokeColor=none;fillColor=none;fontSize=8;fontStyle=1" vertex="1" parent="1">
          <mxGeometry x="495" y="130" width="30" height="20" as="geometry" />
        </mxCell>
        <mxCell id="StHNM1SJUAKFNhLofxxj-8" value="2" style="text;html=1;align=center;verticalAlign=middle;resizable=0;points=[];autosize=1;strokeColor=none;fillColor=none;fontSize=8;fontStyle=1" vertex="1" parent="1">
          <mxGeometry x="495" y="170" width="30" height="20" as="geometry" />
        </mxCell>
        <mxCell id="StHNM1SJUAKFNhLofxxj-9" value="3" style="text;html=1;align=center;verticalAlign=middle;resizable=0;points=[];autosize=1;strokeColor=none;fillColor=none;fontSize=8;fontStyle=1" vertex="1" parent="1">
          <mxGeometry x="495" y="210" width="30" height="20" as="geometry" />
        </mxCell>
        <mxCell id="StHNM1SJUAKFNhLofxxj-10" value="4" style="text;html=1;align=center;verticalAlign=middle;resizable=0;points=[];autosize=1;strokeColor=none;fillColor=none;fontSize=8;fontStyle=1" vertex="1" parent="1">
          <mxGeometry x="495" y="250" width="30" height="20" as="geometry" />
        </mxCell>
      </root>
    </mxGraphModel>
  </diagram>
</mxfile>
